<?xml version="1.0" encoding="UTF-8" standalone="no"?>
<!-- Created with Inkscape (http://www.inkscape.org/) -->

<svg
   xmlns:dc="http://purl.org/dc/elements/1.1/"
   xmlns:cc="http://creativecommons.org/ns#"
   xmlns:rdf="http://www.w3.org/1999/02/22-rdf-syntax-ns#"
   xmlns:svg="http://www.w3.org/2000/svg"
   xmlns="http://www.w3.org/2000/svg"
   xmlns:sodipodi="http://sodipodi.sourceforge.net/DTD/sodipodi-0.dtd"
   xmlns:inkscape="http://www.inkscape.org/namespaces/inkscape"
   width="183.56393mm"
   height="138.43707mm"
   viewBox="0 0 183.56393 138.43707"
   version="1.1"
   id="svg8"
   sodipodi:docname="logo.svg"
   inkscape:version="0.92.5 (2060ec1f9f, 2020-04-08)">
  <defs
     id="defs2" />
  <sodipodi:namedview
     id="base"
     pagecolor="#ffffff"
     bordercolor="#666666"
     borderopacity="1.0"
     inkscape:pageopacity="0.0"
     inkscape:pageshadow="2"
     inkscape:zoom="0.7"
     inkscape:cx="254.88639"
     inkscape:cy="332.26256"
     inkscape:document-units="mm"
     inkscape:current-layer="layer1"
     showgrid="false"
     inkscape:window-width="1800"
     inkscape:window-height="1092"
     inkscape:window-x="0"
     inkscape:window-y="0"
     inkscape:window-maximized="1"
     fit-margin-top="0"
     fit-margin-left="0"
     fit-margin-right="0"
     fit-margin-bottom="0" />
  <metadata
     id="metadata5">
    <rdf:RDF>
      <cc:Work
         rdf:about="">
        <dc:format>image/svg+xml</dc:format>
        <dc:type
           rdf:resource="http://purl.org/dc/dcmitype/StillImage" />
        <dc:title></dc:title>
      </cc:Work>
    </rdf:RDF>
  </metadata>
  <g
     inkscape:label="Layer 1"
     inkscape:groupmode="layer"
     id="layer1"
     transform="translate(-9.5664045,-50.104987)">
    <path
       id="path3723"
       d="m 13.925991,185.02365 c -1.324081,0.75576 -2.624802,1.55401 -3.9722434,2.26729 -0.3901193,0.20651 0.7349134,-0.48936 1.0952414,-0.74432 0.446948,-0.31625 0.891295,-0.6365 1.32624,-0.96906 1.999171,-1.52859 3.879656,-3.18525 5.758025,-4.85768 3.791475,-3.581 7.366663,-7.40659 10.642562,-11.46694 2.39078,-2.96328 3.57465,-4.70798 5.818687,-7.83232 6.696207,-9.73469 12.88242,-19.80976 18.902527,-29.97266 5.758426,-9.65428 10.913898,-19.64098 16.01476,-29.65174 3.956391,-7.762733 7.73983,-15.609719 11.501022,-23.468074 2.038556,-4.294738 4.134395,-8.563007 6.132809,-12.87663 0.814914,-2.070667 0.437457,-1.453121 5.193181,-2.589962 0.358629,-0.08573 -0.298749,0.674262 -0.444527,1.012958 -0.916482,2.129308 -1.773901,4.282106 -2.637681,6.433161 -2.498262,6.336038 -4.673627,12.792921 -6.73598,19.281886 -1.855496,5.734621 -3.472076,11.539031 -4.94512,17.382191 -1.00361,3.93729 -1.871041,7.90615 -2.067629,11.97174 -0.110337,2.63215 0.156625,4.65855 1.346718,7.00769 1.071798,1.63911 2.415697,2.46639 4.399339,2.57935 0.494617,0.0282 0.990671,-0.018 1.486008,-0.027 1.89076,-0.18766 3.777242,-0.58055 5.52446,-1.35253 0.742956,-0.32826 2.843448,-0.69584 2.158016,-1.13165 -0.624671,-0.39717 -5.962417,4.08643 0.225221,-0.80639 3.43585,-3.07867 6.43686,-6.62901 9.093092,-10.39586 1.468611,-2.08266 2.499551,-3.82997 3.836121,-5.99794 3.31078,-5.43226 6.20081,-11.100051 9.17495,-16.718573 2.23559,-4.086172 4.23789,-8.29174 6.24867,-12.491019 1.02957,-2.045377 1.98731,-4.13467 3.13435,-6.119122 0.38127,-0.659619 1.13868,-1.827472 1.55607,-2.479471 1.41279,-2.044454 2.49869,-4.287126 3.84159,-6.373051 1.16841,-1.693293 0.93183,-1.459465 5.28208,-2.220756 0.38039,-0.06657 -0.18977,0.749684 -0.31714,1.114235 -0.75097,2.149297 -1.69891,4.254322 -2.57075,6.354968 -2.7716,6.396011 -5.33037,12.877956 -7.76104,19.410236 -1.87298,5.232355 -3.68991,10.489562 -5.09045,15.870243 -0.82566,3.19773 -1.38806,6.46313 -1.49726,9.76584 0.12937,1.523 0.0115,3.53594 1.23579,4.68775 0.18904,0.17786 0.42787,0.29397 0.6418,0.44095 0.64638,0.15872 0.87067,0.31304 1.5366,0.0814 0.27446,-0.0955 1.01682,-0.56295 0.75982,-0.42736 -1.3099,0.69108 -2.53718,1.56023 -3.91869,2.09393 -0.38338,0.1481 0.58292,-0.58211 0.83847,-0.904 0.29861,-0.37612 0.54654,-0.78984 0.81981,-1.18476 2.05392,-3.37737 3.40033,-7.10563 4.69322,-10.82172 1.65347,-4.82584 3.52621,-9.572764 5.45777,-14.292912 1.78878,-4.387136 3.89411,-8.623737 6.11203,-12.805913 2.03651,-3.916447 4.50722,-7.574685 7.19276,-11.069624 2.40615,-3.033649 5.0458,-5.863241 7.87767,-8.499845 3.74555,-3.403016 8.23555,-5.718816 12.60705,-8.195921 2.70052,-1.298689 5.46348,-2.494286 8.35963,-3.278606 2.49729,-0.557424 5.06186,-0.697508 7.61281,-0.638641 2.10652,0.136843 4.20081,0.719172 6.06015,1.732357 0.40572,0.221086 0.78455,0.488294 1.17682,0.732441 2.55973,1.761344 4.33122,4.289372 5.9152,6.908152 1.62519,3.038337 2.27838,6.292791 2.53949,9.692888 0.14231,2.683425 -0.15542,5.39923 -0.96342,7.968075 -0.16416,0.521899 -0.37255,1.028841 -0.55882,1.543259 -1.23578,3.207123 -3.15196,5.793671 -5.49919,8.26116 -1.65241,1.662358 -3.52618,3.066798 -5.56676,4.215611 -6.49789,3.658214 -4.24272,2.637989 -8.19403,4.286838 -3.97176,1.629944 -8.09189,2.634226 -12.32435,3.277766 -4.49962,0.636236 -9.06857,0.769025 -13.60538,0.591453 -4.64262,-0.2266 -9.26772,-0.876094 -13.81175,-1.844011 -2.87797,-0.700744 -5.73213,-1.592001 -8.41489,-2.861686 -1.80518,-0.85435 -2.18013,-1.138611 -3.88794,-2.167633 -2.42006,-1.662272 -4.70451,-3.605581 -6.51841,-5.931239 -1.12537,-1.442871 -1.46056,-2.155605 -2.37293,-3.741446 -2.11296,-3.892159 -3.22704,-8.183909 -3.97352,-12.519189 -0.47743,-3.116615 -0.55026,-6.286064 -0.1252,-9.409626 0.0694,-0.409265 0.13889,-0.818528 0.20834,-1.227791 0,0 4.93408,-2.407235 4.93408,-2.407235 v 0 c -0.0733,0.405752 -0.14654,0.811504 -0.2198,1.217258 -0.4934,3.078991 -0.48616,6.217256 -0.0435,9.305293 0.69227,4.286647 1.74269,8.532124 3.85204,12.366797 0.91258,1.575517 1.20857,2.21512 2.33038,3.646413 1.78653,2.279415 4.0219,4.189553 6.41955,5.79392 0.62907,0.372946 1.24557,0.767966 1.88721,1.118838 3.22415,1.763067 6.74232,2.925173 10.3073,3.769199 4.53226,0.931066 9.13406,1.588031 13.76165,1.767133 4.52234,0.135557 9.07175,0.0063 13.55049,-0.677905 4.20439,-0.688228 8.33441,-1.739654 12.26932,-3.402782 0.60727,-0.265509 2.30916,-1.245711 1.82182,-0.796525 -0.83402,0.768715 -1.95433,1.154281 -2.89598,1.78658 -0.50181,0.336957 1.06158,-0.579715 1.57462,-0.899316 1.45707,-0.907688 2.79152,-1.994128 4.03393,-3.175453 2.38575,-2.406819 4.28421,-4.883406 5.57561,-8.049619 0.19212,-0.499716 0.40639,-0.991468 0.57636,-1.499145 0.83857,-2.504787 1.15638,-5.174663 1.05262,-7.806479 -0.20878,-3.357136 -0.83367,-6.459174 -2.42818,-9.459383 -1.54533,-2.548882 -3.26953,-5.00186 -5.80197,-6.668875 -2.28544,-1.34224 -4.41155,-2.130211 -7.09052,-2.213999 -2.51907,-0.0209 -5.05199,0.136514 -7.50332,0.756364 -2.85482,0.842611 -5.60257,2.010704 -8.25968,3.349397 1.09053,-0.647827 2.18269,-1.29292 3.27159,-1.943481 0.43933,-0.262472 -0.88971,0.506659 -1.32285,0.779217 -1.85597,1.167871 -3.63116,2.480013 -5.30307,3.896759 -2.85867,2.615616 -5.53852,5.411423 -7.96363,8.438806 -2.70971,3.466976 -5.20245,7.104319 -7.26206,11.000121 -2.21856,4.174839 -4.33786,8.396459 -6.15102,12.766823 -1.94812,4.699106 -3.81925,9.432892 -5.44922,14.253152 -1.25453,3.72853 -2.56058,7.4618 -4.51949,10.89126 -2.10746,3.39859 -2.15057,2.81244 -7.08825,5.62045 -0.86763,0.49341 -1.7981,0.27256 -2.63534,-0.1211 -0.24034,-0.19215 -0.5088,-0.35364 -0.72102,-0.57646 -1.2549,-1.3176 -1.2534,-3.35234 -1.36512,-5.04381 0.10775,-3.36387 0.72448,-6.68793 1.57543,-9.93991 1.44395,-5.41997 3.31116,-10.710869 5.2116,-15.985356 2.43809,-6.510081 5.01404,-12.96616 7.67685,-19.387436 1.31767,-3.324267 0.67675,-1.650646 1.79435,-4.664787 0.19027,-0.513154 0.38974,-1.022969 0.57164,-1.539147 0.10825,-0.307168 0.0291,-0.747406 0.29862,-0.930304 1.5972,-1.084049 3.39633,-1.835846 5.10375,-2.736366 0.10644,-0.05614 -0.19934,0.134845 -0.29901,0.202269 -1.50011,2.001123 -2.46151,4.353766 -3.92237,6.387512 -0.0914,0.14042 -1.52936,2.346489 -1.59384,2.454003 -1.18378,1.97395 -2.13814,4.078324 -3.19996,6.117137 -2.04886,4.21881 -4.08145,8.448027 -6.34445,12.557924 -3.02451,5.632807 -5.95071,11.321981 -9.26539,16.793471 -1.2555,2.05479 -2.439,4.06001 -3.81467,6.03881 -2.62987,3.78288 -5.610287,7.34462 -8.979462,10.48983 -4.098798,3.38553 -2.319838,2.11245 -9.219795,6.07573 -2.440107,1.40158 -5.142368,2.18768 -7.944893,2.36528 -0.519742,-0.0109 -1.04208,0.0204 -1.559226,-0.0326 -2.12934,-0.21819 -3.579384,-1.21868 -4.711518,-2.98951 -1.230471,-2.44482 -1.538742,-4.557 -1.408387,-7.2959 0.208748,-4.12966 1.108622,-8.14977 2.166755,-12.13972 1.509802,-5.86543 3.124258,-11.703042 5.026879,-17.455282 2.070338,-6.468367 4.224771,-12.912262 6.622897,-19.267551 1.501415,-3.88113 0.439308,-1.116862 1.798566,-4.697989 0.206875,-0.545037 0.422177,-1.086911 0.623186,-1.634138 0.11816,-0.321683 0.04577,-0.787194 0.334198,-0.972262 1.627219,-1.044091 3.409741,-1.837896 5.196498,-2.576457 0.189516,-0.07834 -0.18924,0.363868 -0.28386,0.545804 -2.239325,4.287432 -4.260083,8.684215 -6.429656,13.006866 C 81.850155,84.081866 77.976515,91.957816 73.986267,99.776582 68.84453,109.80537 63.658789,119.8156 57.88444,129.50039 c -6.002848,10.13658 -12.176151,20.18114 -18.757873,29.95393 -2.130015,3.01611 -3.43812,4.96164 -5.714508,7.83139 -3.208941,4.04537 -6.723798,7.8547 -10.424101,11.45235 -4.139678,3.78733 -8.305322,7.34349 -13.4215535,9.804 0,0 4.3595865,-3.51843 4.3595865,-3.51843 z"
       inkscape:connector-curvature="0"
       style="stroke-width:0.26458332" />
  </g>
</svg>
